<?xml version="1.0" encoding="UTF-8" standalone="no"?>
<svg xmlns:inkscape="http://www.inkscape.org/namespaces/inkscape" xmlns:sodipodi="http://sodipodi.sourceforge.net/DTD/sodipodi-0.dtd" xmlns="http://www.w3.org/2000/svg" xmlns:svg="http://www.w3.org/2000/svg" xmlns:rdf="http://www.w3.org/1999/02/22-rdf-syntax-ns#" xmlns:cc="http://creativecommons.org/ns#" xmlns:dc="http://purl.org/dc/elements/1.1/" xml:space="preserve" viewBox="0 0 760 210" version="1.1" id="svg7" sodipodi:docname="SIGCHI_Logo.svg" width="760" height="210" inkscape:version="1.3 (0e150ed6c4, 2023-07-21)">
  <title id="title1">SIGCHI Logo</title>
  <defs id="defs1"></defs>
  <metadata id="metadata1">
    
  </metadata>
  <path fill="#191919" d="m 682.77601,158.57253 c -0.24,0.226 -0.367,0.453 -0.527,0.48 -3.372,0.563 -6.772,0.025 -10.33,0.326 -0.447,-0.445 -0.925,-0.924 -1.296,-1.297 v -44.14 c -0.295,-0.273 -0.58,-0.537 -0.88,-0.817 h -43.364 c -0.24,0.212 -0.53,0.47 -0.85,0.757 v 44.377 c -0.476,0.804 -1.07,1.078 -1.964,1.06 -3.123,-0.065 -6.245,-0.025 -9.383,-0.025 -0.54,-0.397 -1.063,-0.783 -0.967,-1.62 0.08,-0.675 0.014,-1.365 0.014,-2.048 V 64.281532 c 0.413,-0.712 0.995,-1.008 1.895,-0.99 3.12,0.06 6.242,0.023 9.436,0.023 l 0.865,0.764 v 36.676998 c 0.515,1.335 1.53,1.17 2.505,1.168 9.952,-0.008 19.904,-0.004 29.855,-0.004 h 12.502 c 0.59,-0.806 0.326,-1.61 0.327,-2.354998 0.017,-11.124 0.003,-22.246 0.025,-33.37 0.003,-0.912 -0.403,-1.98 0.635,-2.667 5.02,-0.54 9.866,-0.357 11.5,0.488 v 94.556998 z" id="path1"></path>
  <path fill="#181818" d="m 574.95101,140.51053 v 13.483 c -1.702,1.694 -4.217,2.54 -6.643,3.556 -2.95,1.232 -6.08,1.833 -9.12,2.748 -0.18,0.054 -0.356,0.15 -0.537,0.16 -4.042,0.173 -8.08,1.168 -12.114,0.552 -2.807,-0.43 -5.69,-0.28 -8.433,-1.126 -2.583,-0.797 -5.314,-1.304 -7.71,-2.487 -2.672,-1.322 -5.445,-2.493 -7.942,-4.2 -4.342,-2.97 -8.118,-6.57 -11.56,-10.48 -3.64,-4.133 -6.374,-8.94 -8.18,-14.126 -1.355,-3.886 -2.316,-7.918 -2.652,-12.104 -0.16,-1.99 -0.392,-3.98 -0.42,-5.986 -0.032,-2.2 0.517,-4.308 0.958,-6.438 0.175,-0.838 -0.012,-1.756 0.19,-2.583 0.58,-2.355998 1.06,-4.772998 1.98,-6.999998 1.394,-3.377 2.794,-6.758 4.902,-9.823 3.555,-5.172 7.7,-9.636 12.76,-13.454 4.516,-3.41 9.394,-5.8 14.69,-7.448 4.055,-1.262 8.174,-2.392 12.51,-2.242 2.048,0.07 4.098,-0.004 6.148,0.016 2.374,0.022 4.664,0.373 7.02,0.9 2.656,0.59 5.315,1.268 7.833,2.16 2.226,0.786 4.527,1.807 6.47,3.67 0,4.285 -0.002,8.705 0,13.553 -1.912,-1.26 -3.282,-2.404 -4.775,-3.366 -3.43,-2.21 -7.19,-3.452 -11.023,-4.753 -5.357,-1.815 -10.728,-0.957 -16.074,-0.903 -2.318,0.024 -4.61,1.38 -6.938,2.05 -2.818,0.812 -5.298,2.43 -7.667,3.946 -2.537,1.625 -5.05,3.624 -6.926,6.117 -2.207,2.935 -4.46,5.853 -5.93,9.277 -1.52,3.54 -2.723,7.122998 -3.402,10.963998 -0.547,3.102 -0.61,6.168 -0.383,9.205 0.278,3.727 1.152,7.377 2.42,10.966 1.635,4.62 4.32,8.558 7.276,12.307 2.31,2.93 5.318,5.19 8.59,7.08 2.772,1.606 5.603,2.83 8.76,3.617 5.54,1.383 8.88,2.16 13.832,1.577 2.87,-0.338 5.768,-0.782 8.535,-1.762 4.658,-1.645 8.835,-4.104 12.61,-7.273 0.196,-0.167 0.508,-0.194 0.948,-0.35 m -113.438,-55.798998 c -1.197,1.18 -2.372,2.593 -4.275,3.273 -1.167,-1.087 -2.075,-2.436 -3.15,-3.625 -3.365,-3.715 -6.878,-7.28 -11.2,-9.98 -2.897,-1.806 -5.993,-3.14 -9.105,-4.434 -1.345,-0.56 -3.03,-0.224 -4.065,-1.213 -3.725,-0.387 -7.247,-0.842 -10.827,-0.833 -3.957,0.008 -7.79,0.792 -11.44,1.98 -5.01,1.632 -9.554,4.327 -13.764,7.597 -3.69,2.87 -6.645,6.344 -9.364,10.07 -2.223,3.048 -3.862,6.48 -5.09,9.968 -1.208,3.427998 -2.286,7.022998 -2.09,10.812998 0.127,2.434 0.14,4.885 -0.003,7.316 -0.117,1.96 1.115,3.712 0.73,5.295 4.778,16.56 15.33,27.136 31.57,32.43 2.513,0.373 5.325,0.686 8.12,1.19 1.7,0.31 3.633,0.462 5.226,-0.05 2.13,-0.68 4.304,-0.268 6.45,-0.92 1.764,-0.536 3.634,-1.008 5.32,-1.682 3.54,-1.414 6.973,-3.095 10.196,-5.247 4.965,-3.315 8.886,-7.495 11.868,-12.62 0.334,-2.424 2.056,-4.396 2.11,-6.978 0.017,-0.977 0.85,-2.07 0.967,-3.157 0.165,-1.54 0.04,-3.11 0.04,-4.67 -0.062,-0.067 -0.122,-0.148 -0.198,-0.205 -0.072,-0.054 -0.162,-0.114 -0.243,-0.114 -10.832,-0.005 -21.663,-0.005 -32.672,-0.005 -1.657,-1.647 -0.493,-3.736 -0.888,-5.847 2.442,0 4.662,-0.002 6.88,0 h 6.733 l 6.733,-0.002 h 6.733 c 2.245,0 4.492,-0.07 6.733,0.02 2.162,0.09 4.4,-0.415 6.612,0.416 0.247,5.333 -0.62,10.332 -1.262,15.683 -0.843,2.097 -1.648,4.608 -2.822,6.932 -3.234,6.4 -7.687,11.782 -13.86,15.578 -3.272,2.01 -6.506,4.084 -10.198,5.315 -2.84,0.945 -5.684,1.802 -8.633,2.397 -3.48,0.7 -6.934,1.22 -10.495,1.088 -5.906,-0.22 -11.52,-1.61 -17.03,-3.69 -4.092,-1.548 -7.794,-3.775 -11.244,-6.332 -3.767,-2.792 -7.247,-5.943 -9.96,-9.907 -1.707,-2.493 -3.554,-4.916 -4.85,-7.624 -1.693,-3.53 -3.433,-7.108 -3.838,-11.084 -0.08,-0.802 -0.458,-1.44 -0.65,-2.154 -0.695,-2.567 -0.54,-5.16 -0.53,-7.75 0.016,-3.336 -0.39,-6.733 1.132,-9.902 -0.15,-4.017998 1.755,-7.502998 3.243,-10.992998 1.228,-2.883 2.74,-5.74 4.9,-8.196 1.762,-2.002 3.2,-4.287 5.142,-6.163 3.655,-3.53 7.626,-6.74 12.127,-8.994 4.054,-2.032 8.35,-3.65 12.93,-4.49 4.178,-0.762 8.343,-1.37 12.55,-1.02 4.024,0.334 8.02,0.822 11.97,2 4.388,1.308 8.382,3.305 12.233,5.62 2.19,1.32 4.203,3.003 6.092,4.742 2.853,2.62 5.625,5.34 7.957,8.465 0.3,0.402 0.59,0.763 0.45,1.7 m -235.925,54.866998 c 1.58,-0.455 2.853,-1.715 4.69,-1.992 1.47,0.778 1.516,2.512 2.21,3.748 2.187,3.888 4.79,7.358 8.61,9.71 1.876,1.156 3.796,2.43 6.082,2.65 3.06,0.292 6.082,1.705 9.207,0.37 2.848,0.193 5.355,-0.87 7.852,-2.055 6.116,-2.907 9.902,-7.8 12.14,-14.046 0.553,-1.543 0.78,-3.123 0.726,-4.762 -0.047,-1.46 -0.01,-2.925 -0.01,-4.224 -0.3,-0.666 -0.554,-1.17 -0.758,-1.694 -1.867,-4.813 -5.682,-7.665 -9.943,-10.182 -4.933,-2.913 -10.21,-5.15 -15.178,-7.975 -3.172,-1.807 -6.402,-3.513 -9.604,-5.252 -4.178,-2.27 -7.046,-5.229998 -8.674,-8.314998 -2.065,-3.913 -2.66,-8.756 -1.667,-13.235 0.203,-0.93 0.002,-1.946 0.197,-2.88 0.475,-2.276 3.247,-7.212 4.84,-9.094 3.1,-3.664 6.97,-6.222 11.58,-7.328 3.68,-0.882 7.433,-1.403 11.32,-0.53 2.21,0.496 4.35,0.917 6.49,1.772 2.313,0.923 4.432,2.092 6.272,3.637 2.358,1.98 4.546,4.198 6.225,6.833 0.137,0.215 0.066,0.563 0.107,1.018 -1.1,1.34 -2.56,2.266 -4.302,3.04 -1.126,-1.974 -2.66,-3.3 -4,-4.8 -2.287,-2.556 -5.198,-4.268 -8.347,-5.173 -4.515,-1.298 -9.138,-1.438 -13.695,0.427 -3.91,1.6 -6.598,4.47 -8.85,7.836 -0.818,1.224 -0.858,2.865 -1.782,4.092 -0.28,1.39 0.378,2.92 -0.65,4.24 0.822,1.494 0.492,3.157 0.645,4.99 1.17,1.006 1.51,2.734 2.56,4.122 1.487,1.968 3.3,3.32 5.304,4.62 3.08,1.996998 6.4,3.504998 9.653,5.156998 5.668,2.882 11.286,5.858 16.94,8.765 2.185,1.122 3.834,2.864 5.524,4.564 1.612,1.62 3,3.293 3.977,5.493 2.364,5.33 2.77,8.885 1.6,14.313 -0.465,2.166 -1.134,4.324 -2.2,6.325 -2.125,3.992 -4.667,7.61 -8.475,10.213 -3.03,2.07 -6.135,3.97 -9.7,4.977 -3.958,1.12 -8.023,2.107 -12.105,1.424 -4.787,-0.8 -9.49,-1.965 -13.535,-5.08 -4.88,-3.758 -8.665,-8.29 -11.224,-13.865 -0.115,-0.25 -0.104,-0.565 -0.113,-0.85 -0.009,-0.285 0.033,-0.576 0.06,-1 m 511.698,18.709 c -0.548,0.95 -1.174,1.01 -1.897,1.003 -3.12,-0.03 -6.24,-0.013 -9.386,-0.013 -0.568,-0.358 -1.058,-0.78 -0.96,-1.602 0.055,-0.48 0.008,-0.973 0.008,-1.46 V 64.255532 c 0.452,-0.774 1.004,-0.976 1.768,-0.967 3.208,0.04 6.42,0.018 9.653,0.018 0.298,0.278 0.582,0.54 0.813,0.754 v 94.239998 z" id="path2"></path>
  <path fill="#1a1a1b" d="m 324.58601,64.000532 c 1.51,-1.35 3.26,-0.338 4.8,-0.754 l 0.954,0.833 v 94.351998 c -0.11,0.314 -0.52,0.576 -0.992,0.912 -1.48,-0.392 -3.22,0.597 -4.762,-0.733 z" id="path3"></path>
  <path fill="#97979f" d="m 193.15201,126.68253 c -6.026,-19.032 -50.124,-22.044 -98.497997,-6.73 -48.374,15.317 -82.704,43.161 -76.678,62.193 6.025,19.032 50.125,22.043 98.497997,6.728 48.376,-15.316 82.707,-43.16 76.68,-62.19" id="path4"></path>
  <path fill="#ffffff" d="m 174.59001,130.81753 c -4.727,-14.933 -39.327,-17.296 -77.279997,-5.28 -37.952,12.016 -64.886,33.862 -60.158,48.793 4.727,14.932 39.327,17.296 77.279997,5.28 37.957,-12.016 64.89,-33.86 60.163,-48.793" id="path5"></path>
  <path fill="#e9a038" d="m 105.67601,15.795532 c 0,0 6.102,2.128 5.575,8.09 -0.526,5.964 -4.734,17.187 -8.944,17.187 -4.206997,0 -6.965997,-6.66 -5.961997,-16.836 1.04,-10.52 9.329997,-8.44 9.329997,-8.44" id="path6"></path>
  <path fill="#e9a038" d="m 74.846013,22.879532 c 0,0 13.773,20.483 23.662,22.956 13.883997,3.47 50.501997,-8.476 50.501997,-8.476 l -28.53,17.83 c 0,0 -11.024,5.476 -8.552,21.016 2.472,15.54 25.074,89.611998 25.074,89.611998 0,0 -19.068,-39.098 -31.077,-49.873 -11.399997,-10.227 -15.539997,-3.716 -15.539997,-3.716 0,0 -13.419,14.127 -15.539,40.967 0,0 -0.353,-21.528 1.767,-37.25 2.118,-15.724 10.313,-53.886998 9.534,-56.336998 -7.332,-23.076 -8.31,-26.102 -8.31,-26.102 l -2.991,-10.626 z" id="path7"></path>
</svg>
